<svg width="108" height="36" viewBox="0 0 108 36" fill="none" xmlns="http://www.w3.org/2000/svg">
<path d="M19.4968 19.5585C21.0707 19.5585 22.6093 20.0253 23.918 20.8997C25.2267 21.7741 26.2467 23.017 26.849 24.4711C27.4514 25.9253 27.609 27.5254 27.3019 29.0691C26.9948 30.6128 26.2369 32.0307 25.124 33.1437C24.011 34.2566 22.593 35.0146 21.0493 35.3216C19.5056 35.6287 17.9055 35.4711 16.4514 34.8688C14.9973 34.2664 13.7544 33.2464 12.88 31.9378C12.0055 30.6291 11.5388 29.0905 11.5388 27.5165C11.5415 25.4068 12.3808 23.3842 13.8726 21.8923C15.3644 20.4005 17.387 19.5612 19.4968 19.5585ZM19.4968 33.8032C20.7396 33.8032 21.9546 33.4346 22.9879 32.7442C24.0213 32.0537 24.8268 31.0723 25.3024 29.9241C25.778 28.7758 25.9025 27.5124 25.66 26.2934C25.4176 25.0744 24.8191 23.9547 23.9403 23.0759C23.0615 22.1971 21.9418 21.5986 20.7229 21.3561C19.5039 21.1136 18.2404 21.238 17.0922 21.7136C15.9439 22.1892 14.9625 22.9946 14.272 24.0279C13.5815 25.0613 13.2129 26.2762 13.2129 27.519C13.2125 28.3445 13.3748 29.1619 13.6904 29.9246C14.006 30.6873 14.4689 31.3804 15.0524 31.9642C15.636 32.548 16.3288 33.0111 17.0914 33.3271C17.854 33.643 18.6713 33.8057 19.4968 33.8057V33.8032ZM17.4858 27.519C17.4858 27.9168 17.6037 28.3056 17.8246 28.6363C18.0456 28.967 18.3596 29.2248 18.7271 29.3771C19.0945 29.5293 19.4989 29.5692 19.889 29.4916C20.2791 29.414 20.6374 29.2225 20.9187 28.9413C21.1999 28.6601 21.3915 28.3017 21.4691 27.9116C21.5467 27.5216 21.5069 27.1172 21.3547 26.7497C21.2025 26.3823 20.9448 26.0682 20.6141 25.8472C20.2833 25.6262 19.8945 25.5083 19.4968 25.5083C18.9635 25.5083 18.452 25.7201 18.0749 26.0972C17.6978 26.4743 17.4859 26.9857 17.4858 27.519ZM77.6468 27.519C77.6468 25.9451 78.1136 24.4065 78.988 23.0979C79.8625 21.7892 81.1054 20.7693 82.5595 20.167C84.0136 19.5647 85.6137 19.4071 87.1574 19.7142C88.7011 20.0212 90.119 20.7791 91.232 21.8921C92.3449 23.005 93.1028 24.423 93.4099 25.9667C93.7169 27.5103 93.5594 29.1104 92.9571 30.5645C92.3548 32.0187 91.3348 33.2615 90.0262 34.136C88.7175 35.0104 87.1789 35.4772 85.605 35.4773C83.4952 35.4746 81.4725 34.6353 79.9806 33.1434C78.4887 31.6515 77.6494 29.6289 77.6468 27.519ZM85.605 33.8032C86.8478 33.8031 88.0627 33.4346 89.0961 32.7441C90.1295 32.0535 90.9348 31.0721 91.4104 29.9239C91.886 28.7757 92.0104 27.5122 91.768 26.2933C91.5255 25.0743 90.927 23.9546 90.0482 23.0758C89.1694 22.197 88.0497 21.5985 86.8308 21.3561C85.6118 21.1136 84.3484 21.238 83.2001 21.7136C82.0519 22.1892 81.0705 22.9946 80.38 24.0279C79.6895 25.0613 79.3209 26.2762 79.3209 27.519C79.3205 28.3445 79.4828 29.1619 79.7984 29.9247C80.1141 30.6874 80.5769 31.3805 81.1605 31.9643C81.7441 32.5481 82.437 33.0112 83.1996 33.3271C83.9622 33.6431 84.7796 33.8057 85.605 33.8057V33.8032ZM7.33854 28.8589C7.14183 27.1991 7.28731 25.5167 7.76601 23.9153C8.2447 22.3139 9.04646 20.8276 10.1218 19.5481C11.1972 18.2686 12.5233 17.223 14.0184 16.4758C15.5135 15.7286 17.1458 15.2958 18.8147 15.2039C20.4836 15.112 22.1535 15.3631 23.7216 15.9416C25.2897 16.5201 26.7226 17.4138 27.9319 18.5675C29.1412 19.7213 30.1013 21.1106 30.7529 22.6497C31.4045 24.1888 31.7338 25.8452 31.7205 27.5165C31.7223 29.3703 31.3002 31.2 30.4864 32.8657H74.6154C73.7736 31.1388 73.3504 29.238 73.3801 27.3172C73.4098 25.3963 73.8916 23.5095 74.7863 21.8095C75.6811 20.1095 76.9637 18.6442 78.5302 17.5323C80.0968 16.4203 81.9032 15.693 83.8032 15.4092C85.7032 15.1255 87.6433 15.2933 89.4664 15.899C91.2895 16.5047 92.9443 17.5313 94.2967 18.8957C95.6491 20.2601 96.6611 21.9238 97.2507 23.7521C97.8403 25.5805 97.991 27.522 97.6905 29.4194C103.494 26.9809 107.242 22.9918 107.242 16.6828C107.242 10.1473 87.5607 0.955243 75.0427 0.522736V8.24716C75.0427 9.73915 74.45 11.17 73.395 12.225C72.34 13.28 70.9091 13.8727 69.4171 13.8727H58.6516C57.3221 13.8707 56.0365 13.3969 55.0238 12.5356C54.0111 11.6744 53.3369 10.4816 53.1214 9.16972C53.1214 9.16972 53.4884 4.26057 54.665 3.3883L53.8931 2.81283L48.3482 9.17471H27.0277C12.5291 9.16972 0.757808 14.4808 0.757808 21.0162C0.757808 24.0327 3.24388 26.77 7.33854 28.8589ZM83.594 27.5165C83.594 27.9143 83.712 28.3031 83.933 28.6338C84.1539 28.9645 84.468 29.2222 84.8355 29.3744C85.2029 29.5266 85.6072 29.5664 85.9973 29.4889C86.3874 29.4113 86.7457 29.2197 87.027 28.9385C87.3082 28.6573 87.4998 28.2989 87.5773 27.9088C87.6549 27.5188 87.6151 27.1144 87.4629 26.747C87.3107 26.3795 87.053 26.0654 86.7223 25.8445C86.3916 25.6235 86.0027 25.5056 85.605 25.5056C85.3407 25.5056 85.079 25.5577 84.8349 25.6589C84.5907 25.7601 84.3689 25.9084 84.1822 26.0954C83.9954 26.2824 83.8473 26.5044 83.7464 26.7487C83.6455 26.993 83.5937 27.2547 83.594 27.519V27.5165Z" fill="black"/>
</svg>
